<svg xmlns="http://www.w3.org/2000/svg" viewBox="0 0 365.4 56.5">
  <g stroke-linecap="round" fill-rule="evenodd" font-size="12" stroke="#000" stroke-width=".9">
    <path d="M8.5 2a4.3 4.3 0 0 0 0 .8v1l.6 2.6a1197.5 1197.5 0 0 1 .2 1l.5 2.8.9 4.9a1.2 1.2 0 0 1 0 0 1 1 0 0 1 0 .3v.3a2.4 2.4 0 0 1 0 .2q0 .5-.3.8a1.5 1.5 0 0 1 0 0q-.4.4-1 .5l-4.5 1a53.5 53.5 0 0 0 0 0l-3.3 1-.9.6a2.7 2.7 0 0 0-.4.8 4.3 4.3 0 0 0 0 0 3.9 3.9 0 0 0-.2.9 8 8 0 0 0 0 .1l-.1.6a4.8 4.8 0 0 0 0 .3v.6a2.5 2.5 0 0 0 .3.6 1.4 1.4 0 0 0 .1.2q.3.4 1 .4h1l1.4-.4a39 39 0 0 1 1.1-.4 46.4 46.4 0 0 1 2-.5 119.4 119.4 0 0 1 1.6-.4 141.5 141.5 0 0 1 1.8-.4.6.6 0 0 0 0 0H10.6a.6.6 0 0 1 0 0q1.1 0 1.4 1.2l.9 7q.4 3.5.5 7 .1 1 .6 1.5.4.4 1 .5a3.7 3.7 0 0 0 .7 0 12.7 12.7 0 0 0 .5 0h.8a5.8 5.8 0 0 0 .6-.1 3.3 3.3 0 0 0 .6-.2 2.3 2.3 0 0 0 .7-.5 2.4 2.4 0 0 0 .4-.5 2.9 2.9 0 0 0 .2-.6 4.4 4.4 0 0 0 .1-.4l.1-1.4a3.3 3.3 0 0 0 0-.1V34a134.2 134.2 0 0 0-.1 0l-.2-2a389.5 389.5 0 0 0-.1-.9l-.6-4a19629.1 19629.1 0 0 1-.3-2.2 23963.3 23963.3 0 0 1-.3-2.5.7.7 0 0 0 0 0V22a.7.7 0 0 1 0 0 1.8 1.8 0 0 1 0-.2q0-.8.7-1a2.3 2.3 0 0 1 .5-.2 130.2 130.2 0 0 1 5.2-.4 82.9 82.9 0 0 1 5.1-.1q.6 0 1-.3a2.3 2.3 0 0 0 .7-.6 2.8 2.8 0 0 0 0-.1 3 3 0 0 0 .4-.7l.2-1-.1-.9a3 3 0 0 0 0-.1 2.5 2.5 0 0 0-.3-.8q-.2-.4-.6-.6-.2-.2-.6-.2a2.7 2.7 0 0 0-.4 0 19.6 19.6 0 0 0-.3 0H29a35 35 0 0 0-1 0 117.5 117.5 0 0 0-1 0 137.6 137.6 0 0 0-1.2.2 194.7 194.7 0 0 0-2.3.2l-2.2.2a1277.1 1277.1 0 0 1-.7 0l-.5.1a688.7 688.7 0 0 1-.6 0l-1 .2a1.8 1.8 0 0 1-.4 0q-.7-.2-1-.8a2.2 2.2 0 0 1 0-.6 446 446 0 0 1-1-5.8 361.4 361.4 0 0 1 0-.7 328.2 328.2 0 0 1-.7-5l-.4-1.4a3 3 0 0 0-.2-.4 2.2 2.2 0 0 0-.4-.5l-.9-.5a3.5 3.5 0 0 0-.2 0h-.5a6.8 6.8 0 0 0-.5-.1 11.7 11.7 0 0 0-.5 0q-1 0-1.7.3a2.6 2.6 0 0 0-.7.3 1.8 1.8 0 0 0-.6.7l-.2.7Z" vector-effect="non-scaling-stroke"/>
    <path d="M30.6 15.7q0-1 .8-1.7.9-.6 2.1-.6a6.1 6.1 0 0 1 .3 0 5.7 5.7 0 0 1 1 0l.8.3a1.7 1.7 0 0 1 1 1.5 250.8 250.8 0 0 1 .1 1.3L37 18a348 348 0 0 1 .1 1.6 412.3 412.3 0 0 1 .1 1.8 181.2 181.2 0 0 1 .2 3.2 198.8 198.8 0 0 1 0 .4 596.5 596.5 0 0 1 .3 3.8 269.6 269.6 0 0 1 0 2.6 240.6 240.6 0 0 1 .1.9 104.4 104.4 0 0 1 0 1.6 78.6 78.6 0 0 1 0 1.5 3.3 3.3 0 0 1 0 .9 2.3 2.3 0 0 1-1 1.3 3.5 3.5 0 0 1-1 .4l-1 .3a8.8 8.8 0 0 1-1 0q-.7 0-1.1-.2a1.6 1.6 0 0 1-.3-.2 1.4 1.4 0 0 1-.5-.8 2.1 2.1 0 0 1 0-.5 152 152 0 0 0-.1-4.8 124.2 124.2 0 0 0-.1-2.7 303.4 303.4 0 0 0-.2-3q0-1.3-.2-2.5a178 178 0 0 0 0-.8l-.4-4.5a104.3 104.3 0 0 0 0 0 77 77 0 0 1-.1-.9l-.1-1.5a6.6 6.6 0 0 1 0-.2Zm2.7-9a5.2 5.2 0 0 0 1.3 0 6.4 6.4 0 0 0 .4 0l1-.1a3.2 3.2 0 0 0 1-.5A2.3 2.3 0 0 0 38 5a2.8 2.8 0 0 0 .1-1q0-.6-.3-1.2-.3-.7-.9-1.1a4.1 4.1 0 0 0 0 0 4.3 4.3 0 0 0-1.2-.8A4 4 0 0 0 34 .6a6.6 6.6 0 0 0-.3 0q-1.4.1-2.3.8-1 .8-1 2a3.3 3.3 0 0 0 0 0 2.9 2.9 0 0 0 .3 1.3 3.5 3.5 0 0 0 .9 1.1 3.6 3.6 0 0 0 .4.3 4.2 4.2 0 0 0 .9.4 4.7 4.7 0 0 0 .3.1ZM60.6 14a16.1 16.1 0 0 0-2-.2q-2.2 0-4.3.5a19.5 19.5 0 0 0-4.1 1.6q-2 1-3.6 2.3-1.6 1.3-2.8 3a13.4 13.4 0 0 0-1.9 3.3 10.5 10.5 0 0 0-.6 3.7 9.6 9.6 0 0 0 0 .6 8.1 8.1 0 0 0 .7 2.8 7.8 7.8 0 0 0 2 2.7 8.5 8.5 0 0 0 .9.7 9.7 9.7 0 0 0 2 1 10.3 10.3 0 0 0 1.5.5 12 12 0 0 0 2.4.2 20.8 20.8 0 0 0 1.3 0 17.5 17.5 0 0 0 6.9-1.9 16.7 16.7 0 0 0 3-2 19.9 19.9 0 0 0 3.4-3.5 1 1 0 0 1 .1-.2.7.7 0 0 1 .6-.2q.4 0 .4.5a2.3 2.3 0 0 1 0 .3 101.8 101.8 0 0 1-.2 4Q64.8 49.2 59 49.2a5.5 5.5 0 0 1-.2 0q-1 0-1.7-.4-.8-.5-1.3-1.1a6.8 6.8 0 0 1-1-1.5 35.2 35.2 0 0 0-.3-.8 28 28 0 0 0-.3-.7 8 8 0 0 0 0 0l-.4-.6a4.8 4.8 0 0 0-.3-.5 1.6 1.6 0 0 0 0-.1 1.2 1.2 0 0 0-1-.4 1.8 1.8 0 0 0-.3 0l-1 .4a7.5 7.5 0 0 0 0 0 8 8 0 0 0-1.3 1 9 9 0 0 0-.5.4 7.2 7.2 0 0 0-.7.7 3.9 3.9 0 0 0 0 0l-.4.7a1 1 0 0 0 0 .3q0 .8.4 1.7a6.6 6.6 0 0 0 .6 1q1 1.5 2.5 2.7 1.5 1.2 3.3 2a10.8 10.8 0 0 0 1.4.4 8.4 8.4 0 0 0 2.1.3 12.3 12.3 0 0 0 1.2 0 9.4 9.4 0 0 0 5.2-2.1 10 10 0 0 0 1.5-1.6q.8-1 1.5-2.4a22.6 22.6 0 0 0 1.2-2.8 34 34 0 0 0 1-3q.9-4 1.4-9.2a131 131 0 0 0 .4-5q.3-5.8.3-13.2a1.9 1.9 0 0 0-.1-.7 1.9 1.9 0 0 0-.5-.7q-.7-.6-1.8-.6a5.7 5.7 0 0 0-.5 0l-.5.1a2.5 2.5 0 0 0-.5.2 5.5 5.5 0 0 0-.2.1l-.4.2a3 3 0 0 0-.4.3 9.2 9.2 0 0 0 0 0l-.6.6-.2.2a.5.5 0 0 1-.3 0 .7.7 0 0 1 0 0h-.7a10 10 0 0 1-.3-.1 23.7 23.7 0 0 0-.4-.1l-.6-.2a46.6 46.6 0 0 0-.8-.2l-2.3-.5a14 14 0 0 0-.7 0Zm-8.9 17.3a11.9 11.9 0 0 0 7.4-2.5 16.8 16.8 0 0 0 3-3.1q1.3-1.5 2.3-3.4a29.5 29.5 0 0 0 .4-.9v-.3a.8.8 0 0 0 .1-.1.9.9 0 0 0 0 0 .4.4 0 0 0 0-.3l-.6-.4a3.7 3.7 0 0 0 0 0l-1.6-.6-2.1-.3a30 30 0 0 0-.2 0l-2.5-.2q-2.1 0-4 .7a12.7 12.7 0 0 0-2.7 1.3 11.4 11.4 0 0 0-.8.6Q49 22.9 48 24.4a6.2 6.2 0 0 0-.7 1.9 5.6 5.6 0 0 0-.2 1.2 3.8 3.8 0 0 0 .2 1.4 3.3 3.3 0 0 0 1 1.4 4.5 4.5 0 0 0 1.8.8l1.4.2a8.2 8.2 0 0 0 .2 0ZM75.7 26.6V26q.2-1 .7-1.5.3-.4 1-.4a3 3 0 0 1 .3 0h.4a2 2 0 0 0 .8-.2q.6-.2 1-1 .9-2 2.3-3.7a15.4 15.4 0 0 1 3.1-2.8 15.1 15.1 0 0 1 3.8-1.9 13 13 0 0 1 4-.6 13.2 13.2 0 0 1 3 .3 11.8 11.8 0 0 1 1.2.3 11.4 11.4 0 0 1 2.2 1 9.8 9.8 0 0 1 1 .7 8.4 8.4 0 0 1 2.1 2.4 8.1 8.1 0 0 1 .2.2 6.7 6.7 0 0 1 .8 3.3q0 1.2-.5 2.2a5.2 5.2 0 0 1-1.4 1.7 6.6 6.6 0 0 1-1.3.9 8.3 8.3 0 0 1-.8.3 9.7 9.7 0 0 1-1.5.4 12.7 12.7 0 0 1-1.3.2l-10.2 1a2 2 0 0 0-.4.1q-.3 0-.5.2a1.2 1.2 0 0 0 0 0q-.4.3-.4.8a2.1 2.1 0 0 0 .3 1 3 3 0 0 0 .3.5 4.7 4.7 0 0 0 .7.7 6.3 6.3 0 0 0 .8.6 8.1 8.1 0 0 0 1.2.5 10.4 10.4 0 0 0 1 .3q1.3.3 2.6.3a13.9 13.9 0 0 0 2.2-.1 15.6 15.6 0 0 0 .4-.1 17 17 0 0 0 2.6-.7q1.3-.5 2.5-1.2a16 16 0 0 0 2.3-1.5 3.8 3.8 0 0 1 .6-.4q.6-.3 1.1-.3.5 0 .9.2a2.9 2.9 0 0 1 .3.2l.2.3a6.7 6.7 0 0 1 .3.3l.6 1a3.7 3.7 0 0 1 0 0 2.2 2.2 0 0 1 .2.5 1.8 1.8 0 0 1 0 .4 1.9 1.9 0 0 1-.2 1l-.5.5a4 4 0 0 1-.1.2q-1.4 1.1-3 2a22.7 22.7 0 0 1-3.5 1.6 22.3 22.3 0 0 1-3.7 1 21.7 21.7 0 0 1-3.8.4 16.6 16.6 0 0 1-3.2-.4 14.6 14.6 0 0 1-1.2-.2 13.4 13.4 0 0 1-2.7-1.1 11.7 11.7 0 0 1-1-.7q-1.7-1-2.8-2.6a10 10 0 0 1-1.6-3.6q-.2-.8-.4-1a.7.7 0 0 0 0 0q-.3-.3-.8-.3a3.6 3.6 0 0 1-.6 0l-1-.5a1.7 1.7 0 0 1-.5-.9l-.1-.6a3.3 3.3 0 0 1 0 0v-.6Zm20-4a1.4 1.4 0 0 0 .8-.3 1.2 1.2 0 0 0 .3-.8 1.5 1.5 0 0 0 0 0 1.2 1.2 0 0 0-.2-.7 1.6 1.6 0 0 0-.1-.2 2.6 2.6 0 0 0-.4-.4l-.5-.3a4.6 4.6 0 0 0-.7-.3 6 6 0 0 0-.6-.2 6.5 6.5 0 0 0-1.2-.1 7.4 7.4 0 0 0-.3 0 9 9 0 0 0-2 .2 10.3 10.3 0 0 0-.5.1 11 11 0 0 0-1.6.6 9.4 9.4 0 0 0-.7.3 8.1 8.1 0 0 0-.9.6l-.7.6a5 5 0 0 0 0 0 3 3 0 0 0-.4.5l-.2.5a1.5 1.5 0 0 0-.1.4.8.8 0 0 0 0 .3q.2.4.7.4a1.8 1.8 0 0 0 .1 0H88a45 45 0 0 0 .1-.1 152.6 152.6 0 0 0 1.2-.1 203.6 203.6 0 0 0 1.3-.2 95.3 95.3 0 0 0 2.7-.3 146.8 146.8 0 0 0 1-.2l.7-.1a82.7 82.7 0 0 0 .7-.1ZM124.2 14.7a3.5 3.5 0 0 0-1.2.2 3.1 3.1 0 0 0-.7.4 4.5 4.5 0 0 0-1 1 5.8 5.8 0 0 0-.5.6 9 9 0 0 0-.5 1.2 12 12 0 0 0-.4 1.2 22 22 0 0 0-.4 1.8 27.1 27.1 0 0 0-.2 1.1 35 35 0 0 0-.3 2.8 39.4 39.4 0 0 0 0 .6l-.1 3.5a55.2 55.2 0 0 0 .1 4.7l.2 4.2a2.7 2.7 0 0 1-.1.9 2.3 2.3 0 0 1-.8 1q-.7.6-2 .7a7.2 7.2 0 0 1-.7 0h-.7l-.8-.2a2 2 0 0 1-.6-.5 1.1 1.1 0 0 1-.3-.4V39a65.8 65.8 0 0 0-.8-5.2 71.7 71.7 0 0 0 0-.1l-1.2-5.4a54 54 0 0 0-1.8-5.3 49.2 49.2 0 0 0-2.4-5.2 11.7 11.7 0 0 1-.2-.4 8.9 8.9 0 0 1-.2-.4l-.2-.7a1.2 1.2 0 0 1 .1-.4q0-.2.2-.3a2.7 2.7 0 0 1 .1-.3 4.5 4.5 0 0 1 .6-.6 5.6 5.6 0 0 1 .4-.3 5.7 5.7 0 0 1 1.3-.7 4.2 4.2 0 0 1 .8-.3 3.5 3.5 0 0 1 .6 0q.9 0 1.6.9a5 5 0 0 1 .4.6 9 9 0 0 1 .5 1l.8 2.8a41.4 41.4 0 0 1 .3 1.1 20.4 20.4 0 0 0 0 .3l.2.5q0 .2.2.3a.2.2 0 0 0 0 0q.3 0 .4-.8a5.2 5.2 0 0 0 0-.2 22.5 22.5 0 0 1 .5-2.3q.3-1.4.8-2.5a12.2 12.2 0 0 1 1-1.8 9.3 9.3 0 0 1 1-1.5q1.4-1.3 3-2a9.9 9.9 0 0 1 2.5-.5 12 12 0 0 1 1.2 0l2.3.2a10.2 10.2 0 0 1 1.2.2 8.1 8.1 0 0 1 .9.4 5.9 5.9 0 0 1 .8.4 4.2 4.2 0 0 1 .7.6q.6.5.6 1.3l-.2 1.2a7.7 7.7 0 0 1-.6 1.4 5.2 5.2 0 0 1-.4.7 4.1 4.1 0 0 1-.4.4l-.6.4a1 1 0 0 1-.3 0 1.9 1.9 0 0 1-.9-.1 2.3 2.3 0 0 1-.1-.1 693.5 693.5 0 0 0-.6-.4 850.1 850.1 0 0 0-.5-.3 14 14 0 0 0-1.2-.7 3 3 0 0 0-1-.2 3.8 3.8 0 0 0-.4 0Z" vector-effect="non-scaling-stroke"/>
    <path d="M140 11.5a16.4 16.4 0 0 0-3.2-.3 11.6 11.6 0 0 0-.8 0 9.9 9.9 0 0 0-2.5.5 9.6 9.6 0 0 0-.6.3 8.2 8.2 0 0 0-2 1.2q-1.2 1-1.9 2.3a6 6 0 0 0-.3.8 6.6 6.6 0 0 0-.3 2.1 5.7 5.7 0 0 0 .1 1.5 6.1 6.1 0 0 0 1 2 14.4 14.4 0 0 0 1.1 1.3 17.6 17.6 0 0 0 2 1.8 41 41 0 0 0 .4.3 45.3 45.3 0 0 0 3.5 2.4 86.5 86.5 0 0 1 1.1.8 74.3 74.3 0 0 1 2.8 1.9q1.8 1.3 3 2.6a5.6 5.6 0 0 1 .6.9 4 4 0 0 1 .6 2 2.7 2.7 0 0 1 0 .4q-.2 1.6-2.3 1.6-1 0-1.7-.4a5.3 5.3 0 0 1 0 0 4.7 4.7 0 0 1-1.4-.8q-.6-.6-1-1.3-.3-.7-.3-1.4l.1-1a10.3 10.3 0 0 1 0 0 9.2 9.2 0 0 1 .2-.8 72.9 72.9 0 0 0 .1-.2 64.6 64.6 0 0 0 .2-.5 2.7 2.7 0 0 0 0-.2 2.3 2.3 0 0 0 .1-.5q0-.5-.4-.9a2 2 0 0 0-.3-.3 2.5 2.5 0 0 0-.5-.2l-.7-.2a5.2 5.2 0 0 0-.8 0 6.3 6.3 0 0 0-.3 0q-1.8 0-2.6 1.1a3 3 0 0 0-.2.3q-.7 1.1-.7 3.5a10 10 0 0 0 0 .5 8.4 8.4 0 0 0 .7 3.1 8.6 8.6 0 0 0 2.2 2.9 9.4 9.4 0 0 0 1 .8 10.8 10.8 0 0 0 2.3 1q1.9.8 4.1.8 1.8 0 3.3-.5a8.8 8.8 0 0 0 .5-.2 7.5 7.5 0 0 0 2.1-1.3 6.6 6.6 0 0 0 1.7-2.4 6.8 6.8 0 0 0 .3-1.1 8 8 0 0 0 .3-1.8q0-2-.7-3.6-.8-1.6-2-3a18.5 18.5 0 0 0-2.5-2.5 37 37 0 0 0-3-2.2 111.8 111.8 0 0 0-.8-.5 100.7 100.7 0 0 0-2.2-1.4 61.3 61.3 0 0 1-1.4-.8 45.6 45.6 0 0 1-1.3-.8 16.5 16.5 0 0 1-.4-.3l-.7-.6a8.6 8.6 0 0 1-.7-.7q-.4-.3-.5-.7a1.7 1.7 0 0 1-.2-.8q0-.8.6-1.2a2 2 0 0 1 0 0l.8-.4a3.2 3.2 0 0 1 .7 0 6.8 6.8 0 0 1 0 0 6.1 6.1 0 0 1 2.7.5 18.1 18.1 0 0 1 .4.2 16.1 16.1 0 0 1 1.9 1.1 322.6 322.6 0 0 0 1 .7 242.4 242.4 0 0 0 .9.6 4.7 4.7 0 0 0 .4.3l.5.2a2 2 0 0 0 .6.1 1.9 1.9 0 0 0 .3 0l.5-.1a4.2 4.2 0 0 0 .4-.2 5.8 5.8 0 0 0 1.3-.9 7.2 7.2 0 0 0 .3-.3 6.2 6.2 0 0 0 .7-.8q.4-.5.4-1 0-1-1-2a8.3 8.3 0 0 0-.3-.1l-1.2-1a14.3 14.3 0 0 0-1.4-.6 18.6 18.6 0 0 0-1.3-.6 22 22 0 0 0-2.5-.8 19 19 0 0 0-.9-.2ZM170.3 21.6a31.1 31.1 0 0 0 0 2.5v2a32.7 32.7 0 0 0 0 .6 38.2 38.2 0 0 0 .2 1.5 2.5 2.5 0 0 1 0 0l.1.5v.3a3.3 3.3 0 0 1 0 .3 2.7 2.7 0 0 1 0 .3l-.3.6q-1.9 4.1-5.9 4.1a4.2 4.2 0 0 1-2-.5 5.6 5.6 0 0 1-1.3-1q-1.4-1.4-2.5-4-.6-1.4-1-3.2a35.5 35.5 0 0 1-.7-2.9 41.4 41.4 0 0 1-.4-3.3 52.5 52.5 0 0 1-.2-4.5l.1-1.2a17.4 17.4 0 0 1 .1-.8 18.3 18.3 0 0 0 0-.1l.2-1.9a3.8 3.8 0 0 0 0-.6l-.2-.5a1.4 1.4 0 0 0-.4-.6q-.4-.3-1.2-.4a5.2 5.2 0 0 0-.6 0 7.6 7.6 0 0 0-.5 0h-.8a3.5 3.5 0 0 0-.7.3 2.4 2.4 0 0 0-.7.5 3 3 0 0 0-.5.7 4 4 0 0 0-.3.5l-.2.8a9.5 9.5 0 0 0-.2 1 19.7 19.7 0 0 0 0 .8l-.1 2.8a55.8 55.8 0 0 0 .2 4.8 41.7 41.7 0 0 0 .7 5 37 37 0 0 0 0 .5q1 4 2.6 6.8a16.3 16.3 0 0 0 1.4 2.2 12.3 12.3 0 0 0 2.7 2.5q2.4 1.7 5.4 1.7a13 13 0 0 0 .6 0 11 11 0 0 0 4.4-1.1q2.3-1.1 4.3-3.7a3.8 3.8 0 0 1 0 0l.3-.4a1.1 1.1 0 0 1 .2-.2l.5-.1.5.1.5.6a12.8 12.8 0 0 0 .2.3q1.4 1.8 3 2.5 1.8.8 4 .8a12 12 0 0 0 5.2-1.1q2.4-1.1 4.2-3a14.4 14.4 0 0 0 2.9-4.5 13.7 13.7 0 0 0 1-5.3 19.4 19.4 0 0 0-.3-4 20 20 0 0 0-.5-1.6 15.3 15.3 0 0 0-.6-1.8 13.2 13.2 0 0 0-.2-.4q-.6-1.2-1.3-2a4.2 4.2 0 0 0-.4-.4l-.5-.3a1.7 1.7 0 0 0-.8-.2 3.5 3.5 0 0 0-.6 0 4.5 4.5 0 0 0-.7.2 6 6 0 0 0-1.4.7 5.4 5.4 0 0 0-.4.3 4.3 4.3 0 0 0-.6.6l-.3.5a1.1 1.1 0 0 0 0 .4 3.9 3.9 0 0 0 0 .2 3.2 3.2 0 0 0 .4 1.5 1168.7 1168.7 0 0 0 .4.8 1527.6 1527.6 0 0 0 .6.8l.5 1.2a15 15 0 0 1 .4 1 6.3 6.3 0 0 1 .2.6l.2 1.2a13.2 13.2 0 0 1 0 1.3 10.5 10.5 0 0 1 0 .6 9 9 0 0 1-.5 2.5 9 9 0 0 1-.1.4 7.8 7.8 0 0 1-1.3 2.1q-.9 1-2.1 1.7a5.8 5.8 0 0 1-2.7.6q-2.7 0-4.2-1.8a6.6 6.6 0 0 1-1.2-2q-.2-.4-.2-1v-.4a3.8 3.8 0 0 1 0-.2 4.8 4.8 0 0 1 .1-.2 29.7 29.7 0 0 0 .6-3.5 28 28 0 0 0 .2-1.4 33.4 33.4 0 0 0 0-2.4q0-2.6-.6-4a2.7 2.7 0 0 0-2.6-1.7 3 3 0 0 0-1.6.4q-1 .6-1.6 2-.8 1.8-1 4.7ZM221.1 21l.1 2.3q.1 3.5 1 5.5a5.9 5.9 0 0 0 .2.6q1 2 2.8 2a5.6 5.6 0 0 0 .6-.1l.5-.1a3.4 3.4 0 0 0 0 0 7.9 7.9 0 0 0 .7-.2 6.9 6.9 0 0 0 .2 0 14.4 14.4 0 0 1 .5-.3 11.8 11.8 0 0 1 .3 0 2.6 2.6 0 0 1 .8-.2 1.5 1.5 0 0 1 1 .4 2.1 2.1 0 0 1 .2.2 2 2 0 0 1 .5 1.4 2.6 2.6 0 0 1 0 0q0 .8-.6 1.6a4.2 4.2 0 0 1 0 0 5.8 5.8 0 0 1-1 1 7.5 7.5 0 0 1-.7.5 9.3 9.3 0 0 1-1.7.9 11 11 0 0 1-.6.2 8.6 8.6 0 0 1-2.6.4 5.1 5.1 0 0 1-3.5-1.3 7.1 7.1 0 0 1-.5-.6 8.2 8.2 0 0 1-1.3-1.9l-.8-2a18.3 18.3 0 0 1-.4-1.6 2 2 0 0 0 0-.2l-.3-.3a.3.3 0 0 0-.2-.1.7.7 0 0 0-.4.2 1 1 0 0 0-.2.1 25.8 25.8 0 0 1-2.6 2.9q-1.7 1.6-3.6 2.6a15.3 15.3 0 0 1-3 1.4 11.8 11.8 0 0 1-3.4.5q-1.5 0-2.7-.5a6 6 0 0 1-1.4-.7 5.3 5.3 0 0 1-.7-.5 5.4 5.4 0 0 1-1.2-1.8 6.3 6.3 0 0 1 0-.2 6.5 6.5 0 0 1-.5-1.6 8.2 8.2 0 0 1 0-1 10.3 10.3 0 0 1 .3-2.4 13.4 13.4 0 0 1 .6-1.8 21 21 0 0 1 1.7-3.3 24.5 24.5 0 0 1 .7-1.1q1.5-2.2 3.5-4.1a30.3 30.3 0 0 1 4.2-3.5q2.3-1.5 4.5-2.4a13.8 13.8 0 0 1 2.3-.6 10.7 10.7 0 0 1 2.1-.3 9.8 9.8 0 0 1 3.1.5 9.3 9.3 0 0 1 2 1 8.2 8.2 0 0 1 .6.4 6.9 6.9 0 0 1 1.9 2.1 5.5 5.5 0 0 1 .7 2.7 6.4 6.4 0 0 1 0 0 2.7 2.7 0 0 1-.3 1.2 3.3 3.3 0 0 1-.8 1 3.7 3.7 0 0 1-1 .7q-.6.3-1.3.3 0 0 0 0a.2.2 0 0 0 0 0 .3.3 0 0 1-.1 0q0 0 0 0a.5.5 0 0 1 0 0 .3.3 0 0 1-.1 0 .2.2 0 0 1-.1 0Zm-5.3-.4a11.7 11.7 0 0 0-.3.6q-1.8 3.2-3.6 5.4a19.7 19.7 0 0 1-2 2.2q-2.9 2.6-5.3 2.6a2.6 2.6 0 0 1-.5 0 1.8 1.8 0 0 1-1-.6 1.7 1.7 0 0 1-.1-.2q-.3-.3-.3-.7a3 3 0 0 1-.1-.6l.2-1.5a8.5 8.5 0 0 1 .4-1 14.4 14.4 0 0 1 .6-1.2 17.8 17.8 0 0 1 1.1-1.7 22.2 22.2 0 0 1 .4-.5 25 25 0 0 1 2-2.3 29.2 29.2 0 0 1 .6-.5 25.8 25.8 0 0 1 2.2-2 18.3 18.3 0 0 1 1.2-.7 14.4 14.4 0 0 1 1.6-1l1.5-.5a4.6 4.6 0 0 1 1 0q1 0 1.7.5a8.3 8.3 0 0 1 .4.4 9.9 9.9 0 0 1 .7 1 1.4 1.4 0 0 1 0 0l.2.4q0 .3-.4.4a2 2 0 0 1-.2 0 3.5 3.5 0 0 0-.2 0q-.7.2-1.1.6l-.7 1ZM241 37a7.6 7.6 0 0 0 2.6.4 10.2 10.2 0 0 0 .4 0 9 9 0 0 0 1.9-.2q1-.3 2-.9l.5-.2a2.5 2.5 0 0 1 .2-.1 3.1 3.1 0 0 1 0 0l.5-.1a1 1 0 0 1 0 0q.3 0 .4.2a.7.7 0 0 1 0 0l.1.5a3.8 3.8 0 0 1 0 .2v1.8a114.4 114.4 0 0 0 0 .7v2l.1 3.5v3.7a894 894 0 0 0 .1 1.7 746.1 746.1 0 0 0 .1 1.7 94 94 0 0 0 0 1v.8a46.7 46.7 0 0 0 .1.9 3.5 3.5 0 0 0 0 0l.2.6a2 2 0 0 0 .4.7 1.5 1.5 0 0 0 .6.5 1.8 1.8 0 0 0 .6 0 6.9 6.9 0 0 0 .2 0 6.1 6.1 0 0 0 1.4-.2 5.7 5.7 0 0 0 .7-.2 4.5 4.5 0 0 0 .7-.4 4 4 0 0 0 .4-.2 3.2 3.2 0 0 0 .6-.6 2.2 2.2 0 0 0 0-.2 1.8 1.8 0 0 0 .3-.9v-1a46.5 46.5 0 0 0-.1-.6 132 132 0 0 1 0-.3l-.3-2.3a177.5 177.5 0 0 1 0-.8 201.3 201.3 0 0 1-.2-2.3 47.6 47.6 0 0 1 0-1.6 37 37 0 0 1-.1-1.4V39.8a261.6 261.6 0 0 1 0-.8l.2-2.2a271.3 271.3 0 0 1 0-.8l.2-2.2.3-4.2a10 10 0 0 1 0-.8 8 8 0 0 1 .2-1l.5-1.7a17.8 17.8 0 0 0 .2-.5 21 21 0 0 0 .2-1.2q.2-.6.2-1.3a14.7 14.7 0 0 0 0-1 20.7 20.7 0 0 0 0-.7v-1a9.7 9.7 0 0 0-.2-.8l-.2-1a3.3 3.3 0 0 0-.4-.6 2.5 2.5 0 0 0-1.1-1 3.3 3.3 0 0 0-.2 0l-.8-.2a6 6 0 0 0-.7 0 11.4 11.4 0 0 0-.5 0l-1 .1a2.3 2.3 0 0 0-.4.1 1.7 1.7 0 0 0-.5.3 1.7 1.7 0 0 0-.3.5 2.4 2.4 0 0 0-.2.4 4 4 0 0 0-.1.4l-.2 1a514 514 0 0 1-.3 4 168.8 168.8 0 0 0-.4 4.2 9.8 9.8 0 0 1 0 0v.5a6 6 0 0 1-.1.4l-.2.5a3.3 3.3 0 0 1-.2.4 7 7 0 0 1-.3.4 5.9 5.9 0 0 1-1.7 1.3 4.7 4.7 0 0 1-2.3.7 5 5 0 0 1-1.9-.4 6 6 0 0 1-1.5-.9 8.2 8.2 0 0 1-.4-.3l-1.3-1.5a14.8 14.8 0 0 1-1.1-1.7 18.6 18.6 0 0 1-.3-.5q-1-2.1-2-5a43 43 0 0 1-.7-3.5 57 57 0 0 1-.7-3.8 3 3 0 0 0 0-.3q-.4-1.6-2.6-1.6a6.4 6.4 0 0 0-.8 0l-1 .3a2.4 2.4 0 0 0-.8.5 2.1 2.1 0 0 0-.1.2q-.5.6-.7 1.7a7.6 7.6 0 0 0 0 1 23.2 23.2 0 0 0 .5 5.2q.6 2.5 1.7 4.9 1 2.4 2.4 4.4a22.9 22.9 0 0 0 .8 1.2 19.2 19.2 0 0 0 2.1 2.3 16 16 0 0 0 1 .9 13.4 13.4 0 0 0 2.4 1.5 9.3 9.3 0 0 0 .8.3ZM267 36a4.9 4.9 0 0 0 1.4.1 6.4 6.4 0 0 0 .4 0l1-.2a3.2 3.2 0 0 0 1-.5 2.3 2.3 0 0 0 .9-1.1 2.9 2.9 0 0 0 0-.9q0-.7-.2-1.3a3.7 3.7 0 0 0-.9-1 4 4 0 0 0-.2-.3 4.4 4.4 0 0 0-1-.5 4 4 0 0 0-1.5-.3 6.5 6.5 0 0 0-.3 0q-.6 0-1 .2a3.4 3.4 0 0 0-1.3.6q-1 .7-1 2a3 3 0 0 0 .3 1.3 3.2 3.2 0 0 0 .9 1 4 4 0 0 0 .4.3 4.5 4.5 0 0 0 .9.5 4.5 4.5 0 0 0 .3 0ZM280.4 12.5a1 1 0 0 0-.1.5 4.9 4.9 0 0 0 0 .3v.9a27.6 27.6 0 0 0 .2.5 27.7 27.7 0 0 1 0 0q0 1 .3 2.5a205.5 205.5 0 0 1 .1 1.1 100.6 100.6 0 0 1 0 .5l.6 5.8a153.8 153.8 0 0 1 0 .4l.4 6.7a474.2 474.2 0 0 1 .1 3 2.2 2.2 0 0 0 0 0 1.6 1.6 0 0 0 .7 1.2q.3.3 1 .4a4 4 0 0 0 .6 0 7 7 0 0 0 .1 0l1.2-.1a3.8 3.8 0 0 0 1.3-.6q1-.7 1.1-1.9l1.1-7.4.8-3.5a32.2 32.2 0 0 1 .4-1.6 23.5 23.5 0 0 1 .2-.4l.7-1.9a5.8 5.8 0 0 1 .4-.7 3.5 3.5 0 0 1 .3-.4l.4-.3a1.3 1.3 0 0 1 .7-.2 1 1 0 0 1 .4 0q.4.2.8.7a5 5 0 0 1 .4.5q.5.8 1 2.2a29.5 29.5 0 0 1 .5 1.4 47.3 47.3 0 0 1 .5 1.6l1 4.2q.9 3.4 1.7 7.9a1.9 1.9 0 0 0 .2.4 1.2 1.2 0 0 0 .5.6 1.7 1.7 0 0 0 .2 0q.6.3 1.6.3l1.2-.2a4.6 4.6 0 0 0 .2 0 4 4 0 0 0 1-.5q.4-.3.7-.8a1.9 1.9 0 0 0 .3-.5 2.5 2.5 0 0 0 0-.6 4 4 0 0 0 0-.2 4.8 4.8 0 0 0 0-.3 7.4 7.4 0 0 0 0-.3 10 10 0 0 0 0-.3l-1.6-7.1a94.5 94.5 0 0 0-.9-3.6 58.9 58.9 0 0 0-.8-2.5l-.8-2.3a26.1 26.1 0 0 0-1-2.1q-.7-1.7-1.7-2.8a7.2 7.2 0 0 0-1-1 5.5 5.5 0 0 0-3.5-1.2q-3.2 0-5.1 3.8a17.1 17.1 0 0 0-1 2.4 5.5 5.5 0 0 1-.2.2q-.2.7-.4.7l-.2-.2a1 1 0 0 1 0-.1 3.5 3.5 0 0 1-.1-.2l-.2-.7a91 91 0 0 0 0 0l-.4-3.1a21.4 21.4 0 0 0 0-.2l-.3-1.2a6.1 6.1 0 0 0 0-.5l-.4-.7a1 1 0 0 0-.2-.2 1.1 1.1 0 0 0-.4-.1 1.4 1.4 0 0 0-.4 0l-1.5.1a7.6 7.6 0 0 0-.6.2 6.2 6.2 0 0 0-.8.4 4.4 4.4 0 0 0-.6.3 3.2 3.2 0 0 0-.4.4l-.3.4ZM306.7 26.6V26q.2-1 .6-1.5.4-.4 1-.4a3 3 0 0 1 .4 0h.4a2 2 0 0 0 .8-.2q.6-.2 1-1 .8-2 2.3-3.7a15.4 15.4 0 0 1 3.1-2.8 15.1 15.1 0 0 1 3.8-1.9 13 13 0 0 1 4-.6 13.2 13.2 0 0 1 3 .3 11.8 11.8 0 0 1 1.1.3 11.4 11.4 0 0 1 2.3 1 9.8 9.8 0 0 1 1 .7 8.4 8.4 0 0 1 2 2.4 8.1 8.1 0 0 1 .2.2 6.7 6.7 0 0 1 .8 3.3q0 1.2-.4 2.2a5.2 5.2 0 0 1-1.4 1.7 6.6 6.6 0 0 1-1.3.9 8.3 8.3 0 0 1-.8.3 9.7 9.7 0 0 1-1.5.4 12.7 12.7 0 0 1-1.3.2l-10.2 1a2 2 0 0 0-.4.1q-.3 0-.5.2a1.2 1.2 0 0 0 0 0q-.4.3-.4.8a2.1 2.1 0 0 0 .3 1 3 3 0 0 0 .3.5 4.7 4.7 0 0 0 .7.7 6.3 6.3 0 0 0 .8.6 8.1 8.1 0 0 0 1.2.5 10.4 10.4 0 0 0 1 .3q1.2.3 2.5.3a13.9 13.9 0 0 0 2.3-.1 15.6 15.6 0 0 0 .3-.1 17 17 0 0 0 2.7-.7q1.3-.5 2.5-1.2a16 16 0 0 0 2.3-1.5 3.8 3.8 0 0 1 .6-.4q.5-.3 1-.3.6 0 1 .2a2.9 2.9 0 0 1 .2.2l.3.3a6.7 6.7 0 0 1 .3.3l.6 1a3.7 3.7 0 0 1 0 0 2.2 2.2 0 0 1 .2.5 1.8 1.8 0 0 1 0 .4 1.9 1.9 0 0 1-.3 1l-.4.5a4 4 0 0 1-.2.2q-1.4 1.1-3 2a22.7 22.7 0 0 1-3.4 1.6 22.3 22.3 0 0 1-3.7 1 21.7 21.7 0 0 1-3.8.4 16.6 16.6 0 0 1-3.3-.4 14.6 14.6 0 0 1-1.2-.2 13.4 13.4 0 0 1-2.6-1.1 11.7 11.7 0 0 1-1-.7q-1.7-1-2.8-2.6a10 10 0 0 1-1.6-3.6q-.2-.8-.5-1a.7.7 0 0 0 0 0q-.2-.3-.7-.3a3.6 3.6 0 0 1-.6 0q-.7-.2-1-.5a1.7 1.7 0 0 1-.6-.9v-.6a3.3 3.3 0 0 1 0 0v-.6Zm20-4a1.4 1.4 0 0 0 .8-.3 1.2 1.2 0 0 0 .3-.8 1.5 1.5 0 0 0 0 0 1.2 1.2 0 0 0-.2-.7 1.6 1.6 0 0 0-.1-.2 2.6 2.6 0 0 0-.4-.4l-.5-.3a4.6 4.6 0 0 0-.7-.3 6 6 0 0 0-.6-.2 6.5 6.5 0 0 0-1.3-.1 7.4 7.4 0 0 0-.3 0 9 9 0 0 0-2 .2 10.3 10.3 0 0 0-.4.1 11 11 0 0 0-1.6.6 9.4 9.4 0 0 0-.7.3 8.1 8.1 0 0 0-.9.6l-.7.6a5 5 0 0 0 0 0 3 3 0 0 0-.4.5l-.3.5a1.5 1.5 0 0 0 0 .4.8.8 0 0 0 0 .3q.2.4.7.4a1.8 1.8 0 0 0 0 0h1.5a45 45 0 0 0 .2-.1 152.6 152.6 0 0 0 1.2-.1 203.6 203.6 0 0 0 1.3-.2 95.3 95.3 0 0 0 2.7-.3 146.8 146.8 0 0 0 1-.2l.7-.1a82.7 82.7 0 0 0 .7-.1ZM342 2a4.3 4.3 0 0 0 0 .8l.2 1 .4 2.6a1197.5 1197.5 0 0 1 .2 1l.6 2.8.9 4.9a1.2 1.2 0 0 1 0 0 1 1 0 0 1 0 .3v.3a2.4 2.4 0 0 1 0 .2q0 .5-.3.8a1.5 1.5 0 0 1 0 0q-.4.4-1 .5l-4.6 1a53.5 53.5 0 0 0 0 0l-3.2 1-.9.6a2.7 2.7 0 0 0-.4.8 4.3 4.3 0 0 0 0 0 3.9 3.9 0 0 0-.3.9 8 8 0 0 0 0 .1v.6a4.8 4.8 0 0 0 0 .3v.6a2.5 2.5 0 0 0 .3.6 1.4 1.4 0 0 0 0 .2q.4.4 1 .4h1.1l1.4-.4a39 39 0 0 1 1.1-.4 46.4 46.4 0 0 1 2-.5 119.4 119.4 0 0 1 1.6-.4 141.5 141.5 0 0 1 1.8-.4.6.6 0 0 0 0 0h.2q0 0 0 0a.6.6 0 0 1 .2 0q1 0 1.3 1.2l.9 7 .5 7q0 1 .6 1.5.4.4 1 .5a3.7 3.7 0 0 0 .6 0 12.7 12.7 0 0 0 .6 0h.8a5.8 5.8 0 0 0 .6-.1 3.3 3.3 0 0 0 .6-.2 2.3 2.3 0 0 0 .6-.5 2.4 2.4 0 0 0 .4-.5 2.9 2.9 0 0 0 .3-.6 4.4 4.4 0 0 0 .1-.4l.1-1.4a3.3 3.3 0 0 0 0-.1l-.1-1.5a134.2 134.2 0 0 0 0 0l-.3-2a389.5 389.5 0 0 0 0-.9l-.6-4a19629.1 19629.1 0 0 1-.3-2.2 23963.3 23963.3 0 0 1-.4-2.5.7.7 0 0 0 0 0V22a.7.7 0 0 1 0 0 1.8 1.8 0 0 1 0-.2q0-.8.8-1a2.3 2.3 0 0 1 .5-.2 130.2 130.2 0 0 1 5.2-.4 82.9 82.9 0 0 1 5.1-.1q.6 0 1-.3a2.3 2.3 0 0 0 .6-.6 2.8 2.8 0 0 0 .2-.1 3 3 0 0 0 .3-.7l.1-1v-.9a3 3 0 0 0 0-.1 2.5 2.5 0 0 0-.3-.8q-.2-.4-.6-.6l-.6-.2a2.7 2.7 0 0 0-.4 0 19.6 19.6 0 0 0-.3 0h-.7a35 35 0 0 0-1 0 117.5 117.5 0 0 0-1 0 137.6 137.6 0 0 0-1.2.2 194.7 194.7 0 0 0-2.4.2l-2.2.2a1277.1 1277.1 0 0 1-.6 0l-.5.1a688.7 688.7 0 0 1-.6 0l-1.1.2a1.8 1.8 0 0 1-.4 0q-.6-.2-.9-.8a2.2 2.2 0 0 1 0-.6 446 446 0 0 1-1-5.8 361.4 361.4 0 0 1 0-.7 328.2 328.2 0 0 1-.8-5l-.3-1.4a3 3 0 0 0-.2-.4 2.2 2.2 0 0 0-.4-.5l-.9-.5a3.5 3.5 0 0 0-.2 0h-.5a6.8 6.8 0 0 0-.5-.1 11.7 11.7 0 0 0-.5 0q-1 0-1.7.3a2.6 2.6 0 0 0-.7.3 1.8 1.8 0 0 0-.6.7l-.3.7Z" vector-effect="non-scaling-stroke"/>
  </g>
</svg>
